<svg width="189" height="89" viewBox="0 0 189 89" fill="none" xmlns="http://www.w3.org/2000/svg">
<path d="M39.8489 65.2294C32.5297 65.2294 26.837 70.2469 26.837 76.6982C26.837 83.1494 32.5297 88.1671 39.8489 88.1671C47.1681 88.1671 52.8609 83.1494 52.8609 76.6982C52.8609 70.2469 47.1681 65.2294 39.8489 65.2294ZM117.107 0H110.601V13.9777H134.999L117.107 0ZM0.81317 78.8486H17.0781C17.0781 78.8486 17.8913 57.3445 41.4754 57.3445C58.9602 57.3445 61.8065 78.8486 61.8065 78.8486H102.469V0H0L0.81317 78.8486ZM154.516 65.2294C147.197 65.2294 141.505 70.2469 141.505 76.6982C141.505 83.1494 147.197 88.1671 154.516 88.1671C161.836 88.1671 167.528 83.1494 167.528 76.6982C167.528 70.2469 161.429 65.2294 154.516 65.2294ZM139.065 17.9201H110.601V78.8486H134.999C134.999 78.8486 131.746 60.9285 155.33 60.9285C173.221 60.9285 172.814 78.8486 172.814 78.8486H187.86L188.673 51.9684L139.065 17.9201ZM134.999 64.5125H118.734V57.3445H134.999V64.5125ZM133.372 51.61L117.107 43.0083V22.9378H133.372L175.661 51.61H133.372Z" fill="white" fill-opacity="0.4"/>
</svg>
