<svg width="12" height="21" viewBox="0 0 12 21" fill="none" xmlns="http://www.w3.org/2000/svg">
<path d="M10.9993 0.307847L8.4058 0.303589C5.49206 0.303589 3.60908 2.28058 3.60908 5.34049V7.66284H1.0014C0.77607 7.66284 0.593597 7.84979 0.593597 8.08038V11.4452C0.593597 11.6758 0.776278 11.8625 1.0014 11.8625H3.60908V20.353C3.60908 20.5836 3.79155 20.7704 4.01688 20.7704H7.41916C7.64449 20.7704 7.82696 20.5834 7.82696 20.353V11.8625H10.8759C11.1013 11.8625 11.2837 11.6758 11.2837 11.4452L11.285 8.08038C11.285 7.96966 11.2419 7.86363 11.1656 7.78527C11.0892 7.70692 10.9852 7.66284 10.877 7.66284H7.82696V5.69416C7.82696 4.74793 8.0473 4.26757 9.25179 4.26757L10.9989 4.26694C11.224 4.26694 11.4065 4.07999 11.4065 3.84961V0.725176C11.4065 0.495007 11.2242 0.308273 10.9993 0.307847Z" fill="#F13C6E"/>
</svg>
