<svg width="22" height="23" viewBox="0 0 22 23" fill="none" xmlns="http://www.w3.org/2000/svg">
<g clip-path="url(#clip0_1_225)">
<path d="M15.125 0.280151H6.875C3.07863 0.280151 0 3.43063 0 7.31561V15.7582C0 19.6431 3.07863 22.7936 6.875 22.7936H15.125C18.9214 22.7936 22 19.6431 22 15.7582V7.31561C22 3.43063 18.9214 0.280151 15.125 0.280151ZM19.9375 15.7582C19.9375 18.4738 17.7787 20.683 15.125 20.683H6.875C4.22125 20.683 2.0625 18.4738 2.0625 15.7582V7.31561C2.0625 4.59992 4.22125 2.39079 6.875 2.39079H15.125C17.7787 2.39079 19.9375 4.59992 19.9375 7.31561V15.7582Z" fill="#F13C6E"/>
<path d="M11 5.90857C7.96262 5.90857 5.5 8.42867 5.5 11.5369C5.5 14.6452 7.96262 17.1653 11 17.1653C14.0374 17.1653 16.5 14.6452 16.5 11.5369C16.5 8.42867 14.0374 5.90857 11 5.90857ZM11 15.0547C9.10525 15.0547 7.5625 13.4759 7.5625 11.5369C7.5625 9.59656 9.10525 8.01921 11 8.01921C12.8948 8.01921 14.4375 9.59656 14.4375 11.5369C14.4375 13.4759 12.8948 15.0547 11 15.0547Z" fill="#F13C6E"/>
<path d="M16.9125 6.23641C17.3173 6.23641 17.6454 5.90063 17.6454 5.48643C17.6454 5.07223 17.3173 4.73645 16.9125 4.73645C16.5077 4.73645 16.1796 5.07223 16.1796 5.48643C16.1796 5.90063 16.5077 6.23641 16.9125 6.23641Z" fill="#F13C6E"/>
</g>
<defs>
<clipPath id="clip0_1_225">
<rect width="22" height="22.5135" fill="white" transform="translate(0 0.280151)"/>
</clipPath>
</defs>
</svg>
