<svg width="29" height="17" viewBox="0 0 29 17" fill="none" xmlns="http://www.w3.org/2000/svg">
<path d="M27.8947 14.8271C27.8607 14.7522 27.8291 14.6901 27.7997 14.6402C27.3131 13.7429 26.3833 12.6416 25.0109 11.3358L24.9819 11.3059L24.9674 11.2913L24.9527 11.2762H24.938C24.3151 10.6682 23.9206 10.2594 23.7554 10.0501C23.4532 9.65134 23.3855 9.24776 23.5507 8.83882C23.6674 8.52986 24.1057 7.87738 24.8648 6.88047C25.264 6.35215 25.5802 5.92871 25.8137 5.6097C27.4978 3.31709 28.228 1.85208 28.004 1.2141L27.917 1.06502C27.8585 0.975259 27.7077 0.893148 27.4646 0.818264C27.221 0.743537 26.9096 0.731179 26.5299 0.78098L22.3249 0.810724C22.2568 0.786007 22.1595 0.788311 22.0328 0.818264C21.9062 0.848218 21.8429 0.863247 21.8429 0.863247L21.7697 0.900689L21.7116 0.945672C21.6629 0.975416 21.6094 1.02773 21.5509 1.10251C21.4928 1.17703 21.4441 1.26448 21.4053 1.36413C20.9475 2.57019 20.4269 3.69151 19.8428 4.72805C19.4826 5.34614 19.1518 5.88179 18.8497 6.33534C18.548 6.78873 18.2949 7.12277 18.0907 7.3369C17.8861 7.55124 17.7015 7.72295 17.5357 7.85266C17.3702 7.98242 17.2438 8.03725 17.1563 8.01719C17.0686 7.99714 16.986 7.97724 16.9078 7.95734C16.7716 7.86758 16.6621 7.74552 16.5795 7.59103C16.4965 7.43655 16.4407 7.24212 16.4115 7.00788C16.3824 6.77349 16.3653 6.57188 16.3603 6.40237C16.3558 6.23307 16.3579 5.9936 16.3678 5.68463C16.3779 5.37551 16.3824 5.16636 16.3824 5.05671C16.3824 4.67789 16.3896 4.26676 16.4041 3.82321C16.4188 3.37967 16.4308 3.02824 16.4407 2.76934C16.4507 2.51017 16.4553 2.23598 16.4553 1.94692C16.4553 1.65786 16.4381 1.43116 16.4041 1.26663C16.3706 1.1023 16.3191 0.942792 16.2512 0.788154C16.1829 0.633672 16.083 0.514172 15.9519 0.429338C15.8205 0.344609 15.6572 0.277371 15.4628 0.227413C14.9468 0.10786 14.2898 0.0431876 13.4915 0.0331332C11.681 0.0132339 10.5177 0.132944 10.0018 0.392105C9.79742 0.501604 9.61244 0.651215 9.44705 0.840467C9.27179 1.05983 9.24735 1.17954 9.37387 1.19923C9.958 1.28883 10.3715 1.50317 10.6149 1.84203L10.7026 2.02159C10.7708 2.15115 10.8389 2.38051 10.9071 2.70938C10.9752 3.03824 11.0191 3.40203 11.0384 3.80054C11.087 4.52828 11.087 5.15123 11.0384 5.66945C10.9897 6.18788 10.9437 6.59146 10.8998 6.88053C10.8558 7.16959 10.7902 7.40383 10.7026 7.58318C10.6149 7.76259 10.5565 7.87224 10.5273 7.91204C10.4981 7.95184 10.4738 7.97692 10.4544 7.98677C10.3279 8.03641 10.1963 8.06171 10.0601 8.06171C9.92373 8.06171 9.75834 7.99185 9.5637 7.85224C9.36911 7.71263 9.16716 7.52086 8.95784 7.27663C8.74852 7.03234 8.51246 6.69096 8.24954 6.25244C7.98683 5.81393 7.71425 5.29565 7.43196 4.69763L7.1984 4.26393C7.05239 3.98492 6.85294 3.57866 6.59985 3.04552C6.3466 2.51216 6.12276 1.99625 5.92817 1.49788C5.85038 1.28857 5.73353 1.12922 5.5778 1.01956L5.50472 0.974578C5.45614 0.93478 5.37815 0.89252 5.27117 0.847485C5.16403 0.802502 5.05223 0.770244 4.93532 0.750397L0.934646 0.780142C0.525828 0.780142 0.248441 0.874977 0.102384 1.06439L0.0439298 1.15399C0.0147285 1.20389 0 1.28359 0 1.3933C0 1.50296 0.0292013 1.63754 0.087655 1.79689C0.671681 3.20241 1.3068 4.55791 1.993 5.86362C2.67921 7.16933 3.27551 8.22111 3.78154 9.01802C4.28768 9.81551 4.80359 10.5682 5.32926 11.2756C5.85494 11.9834 6.2029 12.4369 6.37314 12.6362C6.5436 12.8358 6.67748 12.985 6.7748 13.0847L7.13989 13.4435C7.37351 13.6827 7.71656 13.9693 8.1692 14.3031C8.62195 14.6372 9.12318 14.966 9.67314 15.2902C10.2232 15.6139 10.8631 15.878 11.5933 16.0823C12.3233 16.2868 13.0338 16.3689 13.725 16.3293H15.4042C15.7447 16.2992 16.0027 16.1895 16.1781 16.0003L16.2362 15.9253C16.2752 15.8658 16.3118 15.7734 16.3456 15.649C16.3797 15.5245 16.3967 15.3872 16.3967 15.2379C16.3867 14.8094 16.4186 14.4232 16.4914 14.0794C16.5642 13.7356 16.6471 13.4765 16.7399 13.3019C16.8326 13.1275 16.9373 12.9804 17.0537 12.8611C17.1704 12.7415 17.2536 12.6691 17.3024 12.6442C17.3508 12.6191 17.3895 12.6021 17.4187 12.5919C17.6524 12.5122 17.9273 12.5894 18.244 12.8238C18.5604 13.058 18.8571 13.3473 19.1347 13.691C19.4122 14.035 19.7455 14.421 20.1348 14.8496C20.5243 15.2782 20.8649 15.5969 21.1568 15.8065L21.4487 15.9859C21.6437 16.1056 21.8968 16.2153 22.2083 16.3149C22.5193 16.4145 22.7918 16.4395 23.0258 16.3897L26.7635 16.33C27.1332 16.33 27.4208 16.2673 27.6249 16.1429C27.8293 16.0183 27.9508 15.8811 27.99 15.7318C28.029 15.5823 28.0311 15.4128 27.9974 15.2232C27.9628 15.0341 27.9287 14.9019 27.8947 14.8271Z" fill="#F13C6E"/>
</svg>
